# xmcd
#
# Track frame offsets:
#	150
#	21262
#	36025
#
# Disc length: 757 seconds
#
# Revision: 1
# Processed by: cddbd v1.5PL3 Copyright (c) Steve Scherf et al.
# Submitted via: CDex 1.50Beta5
#
DISCID=1b02f303
DTITLE=森高千里 - 休みの午後
DYEAR=1900
DGENRE=Pop
TTITLE0=休みの午後
TTITLE1=忘れ物
TTITLE2=休みの午後(カラオケ)
EXTD=
EXTT0=
EXTT1=
EXTT2=
PLAYORDER=
